HIERARCHY
ROOT Hips
{
	OFFSET 0.000000 97.167313 0.000000
	CHANNELS 6 Xposition Yposition Zposition Xrotation Yrotation Zrotation
	JOINT Spine
	{
		OFFSET 0.000000 13.784798 0.064400
		CHANNELS 3 Xrotation Yrotation Zrotation
		JOINT Spine1
		{
			OFFSET 0.000000 12.037903 0.404700
			CHANNELS 3 Xrotation Yrotation Zrotation
			JOINT Spine2
			{
				OFFSET 0.000000 17.795601 0.420200
				CHANNELS 3 Xrotation Yrotation Zrotation
				JOINT Neck
				{
					OFFSET 0.000000 39.131302 11.954600
					CHANNELS 3 Xrotation Yrotation Zrotation
					JOINT Head
					{
						OFFSET 0.000000 14.456192 15.627699
						CHANNELS 3 Xrotation Yrotation Zrotation
						JOINT HeadTop_End
						{
							OFFSET 0.000000 15.703506 7.603401
							CHANNELS 3 Xrotation Yrotation Zrotation
							End Site
							{
								OFFSET 0.000000 17.447403 0.000000
							}
						}
					}
				}
				JOINT LeftShoulder
				{
					OFFSET 17.399500 24.608795 1.168800
					CHANNELS 3 Xrotation Yrotation Zrotation
					JOINT LeftArm
					{
						OFFSET 18.980635 5.765305 1.818600
						CHANNELS 3 Xrotation Yrotation Zrotation
						JOINT LeftForeArm
						{
							OFFSET 49.290169 0.000000 0.000000
							CHANNELS 3 Xrotation Yrotation Zrotation
							JOINT LeftHand
							{
								OFFSET 31.562012 0.000000 0.000000
								CHANNELS 3 Xrotation Yrotation Zrotation
								JOINT LeftHandThumb1
								{
									OFFSET 6.133995 -4.388519 7.076070
									CHANNELS 3 Xrotation Yrotation Zrotation
									JOINT LeftHandThumb2
									{
										OFFSET 6.037666 -3.485840 3.485847
										CHANNELS 3 Xrotation Yrotation Zrotation
										JOINT LeftHandThumb3
										{
											OFFSET 6.496506 -3.750763 3.750761
											CHANNELS 3 Xrotation Yrotation Zrotation
											JOINT LeftHandThumb4
											{
												OFFSET 5.616882 -3.242905 3.242910
												CHANNELS 3 Xrotation Yrotation Zrotation
												End Site
												{
													OFFSET -1.254608 7.132141 0.375429
												}
											}
										}
									}
								}
								JOINT LeftHandPinky1
								{
									OFFSET 18.920792 -0.453171 -11.426712
									CHANNELS 3 Xrotation Yrotation Zrotation
									JOINT LeftHandPinky2
									{
										OFFSET 4.919586 0.000000 0.000000
										CHANNELS 3 Xrotation Yrotation Zrotation
										JOINT LeftHandPinky3
										{
											OFFSET 5.233047 0.000000 0.000000
											CHANNELS 3 Xrotation Yrotation Zrotation
											JOINT LeftHandPinky4
											{
												OFFSET 5.571716 0.000000 0.000000
												CHANNELS 3 Xrotation Yrotation Zrotation
												End Site
												{
													OFFSET -3.459808 4.342407 -0.466164
												}
											}
										}
									}
								}
								JOINT LeftHandRing1
								{
									OFFSET 22.726120 -0.094986 -6.500475
									CHANNELS 3 Xrotation Yrotation Zrotation
									JOINT LeftHandRing2
									{
										OFFSET 6.408615 0.000000 0.000000
										CHANNELS 3 Xrotation Yrotation Zrotation
										JOINT LeftHandRing3
										{
											OFFSET 6.150223 0.000000 0.000000
											CHANNELS 3 Xrotation Yrotation Zrotation
											JOINT LeftHandRing4
											{
												OFFSET 6.145386 0.000000 0.000000
												CHANNELS 3 Xrotation Yrotation Zrotation
												End Site
												{
													OFFSET -3.671402 4.923981 -0.202372
												}
											}
										}
									}
								}
								JOINT LeftHandMiddle1
								{
									OFFSET 23.373947 0.000000 0.000001
									CHANNELS 3 Xrotation Yrotation Zrotation
									JOINT LeftHandMiddle2
									{
										OFFSET 6.996567 0.000000 0.000000
										CHANNELS 3 Xrotation Yrotation Zrotation
										JOINT LeftHandMiddle3
										{
											OFFSET 7.015945 0.000000 0.000000
											CHANNELS 3 Xrotation Yrotation Zrotation
											JOINT LeftHandMiddle4
											{
												OFFSET 7.721573 0.000000 0.000000
												CHANNELS 3 Xrotation Yrotation Zrotation
												End Site
												{
													OFFSET -4.651108 6.158463 0.251582
												}
											}
										}
									}
								}
								JOINT LeftHandIndex1
								{
									OFFSET 21.310577 -0.490082 6.209344
									CHANNELS 3 Xrotation Yrotation Zrotation
									JOINT LeftHandIndex2
									{
										OFFSET 7.536453 0.000000 0.000000
										CHANNELS 3 Xrotation Yrotation Zrotation
										JOINT LeftHandIndex3
										{
											OFFSET 7.512344 0.000000 0.000000
											CHANNELS 3 Xrotation Yrotation Zrotation
											JOINT LeftHandIndex4
											{
												OFFSET 10.212402 0.000000 0.000001
												CHANNELS 3 Xrotation Yrotation Zrotation
												End Site
												{
													OFFSET -5.180801 8.690506 1.388433
												}
											}
										}
									}
								}
							}
						}
					}
				}
				JOINT RightShoulder
				{
					OFFSET -17.399500 24.608795 1.168800
					CHANNELS 3 Xrotation Yrotation Zrotation
					JOINT RightArm
					{
						OFFSET -18.980635 5.765305 1.818600
						CHANNELS 3 Xrotation Yrotation Zrotation
						JOINT RightForeArm
						{
							OFFSET -49.290169 0.000000 0.000000
							CHANNELS 3 Xrotation Yrotation Zrotation
							JOINT RightHand
							{
								OFFSET -31.562012 0.000000 0.000000
								CHANNELS 3 Xrotation Yrotation Zrotation
								JOINT RightHandThumb1
								{
									OFFSET -6.133995 -4.388519 7.076070
									CHANNELS 3 Xrotation Yrotation Zrotation
									JOINT RightHandThumb2
									{
										OFFSET -6.037666 -3.485840 3.485847
										CHANNELS 3 Xrotation Yrotation Zrotation
										JOINT RightHandThumb3
										{
											OFFSET -6.496506 -3.750763 3.750761
											CHANNELS 3 Xrotation Yrotation Zrotation
											JOINT RightHandThumb4
											{
												OFFSET -5.616882 -3.242905 3.242910
												CHANNELS 3 Xrotation Yrotation Zrotation
												End Site
												{
													OFFSET 1.254608 7.132141 0.375429
												}
											}
										}
									}
								}
								JOINT RightHandIndex1
								{
									OFFSET -21.310577 -0.490082 6.209344
									CHANNELS 3 Xrotation Yrotation Zrotation
									JOINT RightHandIndex2
									{
										OFFSET -7.536453 0.000000 0.000000
										CHANNELS 3 Xrotation Yrotation Zrotation
										JOINT RightHandIndex3
										{
											OFFSET -7.512344 0.000000 0.000000
											CHANNELS 3 Xrotation Yrotation Zrotation
											JOINT RightHandIndex4
											{
												OFFSET -10.212402 0.000000 0.000001
												CHANNELS 3 Xrotation Yrotation Zrotation
												End Site
												{
													OFFSET 5.180801 8.690506 1.388433
												}
											}
										}
									}
								}
								JOINT RightHandMiddle1
								{
									OFFSET -23.373947 0.000000 0.000001
									CHANNELS 3 Xrotation Yrotation Zrotation
									JOINT RightHandMiddle2
									{
										OFFSET -6.996567 0.000000 0.000000
										CHANNELS 3 Xrotation Yrotation Zrotation
										JOINT RightHandMiddle3
										{
											OFFSET -7.015945 0.000000 0.000000
											CHANNELS 3 Xrotation Yrotation Zrotation
											JOINT RightHandMiddle4
											{
												OFFSET -7.721573 0.000000 0.000000
												CHANNELS 3 Xrotation Yrotation Zrotation
												End Site
												{
													OFFSET 4.651108 6.158463 0.251582
												}
											}
										}
									}
								}
								JOINT RightHandRing1
								{
									OFFSET -22.726120 -0.094986 -6.500475
									CHANNELS 3 Xrotation Yrotation Zrotation
									JOINT RightHandRing2
									{
										OFFSET -6.408615 0.000000 0.000000
										CHANNELS 3 Xrotation Yrotation Zrotation
										JOINT RightHandRing3
										{
											OFFSET -6.150223 0.000000 0.000000
											CHANNELS 3 Xrotation Yrotation Zrotation
											JOINT RightHandRing4
											{
												OFFSET -6.145386 0.000000 0.000000
												CHANNELS 3 Xrotation Yrotation Zrotation
												End Site
												{
													OFFSET 3.671402 4.923981 -0.202372
												}
											}
										}
									}
								}
								JOINT RightHandPinky1
								{
									OFFSET -18.920792 -0.453171 -11.426712
									CHANNELS 3 Xrotation Yrotation Zrotation
									JOINT RightHandPinky2
									{
										OFFSET -4.919586 0.000000 0.000000
										CHANNELS 3 Xrotation Yrotation Zrotation
										JOINT RightHandPinky3
										{
											OFFSET -5.233047 0.000000 0.000000
											CHANNELS 3 Xrotation Yrotation Zrotation
											JOINT RightHandPinky4
											{
												OFFSET -5.571716 0.000000 0.000000
												CHANNELS 3 Xrotation Yrotation Zrotation
												End Site
												{
													OFFSET 3.459808 4.342407 -0.466164
												}
											}
										}
									}
								}
							}
						}
					}
				}
			}
		}
	}
	JOINT LeftUpLeg
	{
		OFFSET 19.899099 -7.885101 -3.429500
		CHANNELS 3 Xrotation Yrotation Zrotation
		JOINT LeftLeg
		{
			OFFSET 1.745560 -36.997807 10.304700
			CHANNELS 3 Xrotation Yrotation Zrotation
			JOINT LeftFoot
			{
				OFFSET -1.745558 -29.803308 -13.615400
				CHANNELS 3 Xrotation Yrotation Zrotation
				JOINT LeftToeBase
				{
					OFFSET 1.181900 -18.539904 15.226099
					CHANNELS 3 Xrotation Yrotation Zrotation
					JOINT LeftToe_End
					{
						OFFSET -0.863701 1.402801 16.534700
						CHANNELS 3 Xrotation Yrotation Zrotation
						End Site
						{
							OFFSET 0.000000 16.616566 0.000000
						}
					}
				}
			}
		}
	}
	JOINT RightUpLeg
	{
		OFFSET -19.899099 -7.885101 -3.429500
		CHANNELS 3 Xrotation Yrotation Zrotation
		JOINT RightLeg
		{
			OFFSET -1.745560 -36.997807 10.304700
			CHANNELS 3 Xrotation Yrotation Zrotation
			JOINT RightFoot
			{
				OFFSET 1.745558 -29.803308 -13.615400
				CHANNELS 3 Xrotation Yrotation Zrotation
				JOINT RightToeBase
				{
					OFFSET -1.181900 -18.539904 15.226099
					CHANNELS 3 Xrotation Yrotation Zrotation
					JOINT RightToe_End
					{
						OFFSET 0.863701 1.402801 16.534700
						CHANNELS 3 Xrotation Yrotation Zrotation
						End Site
						{
							OFFSET 0.000000 16.616566 0.000000
						}
					}
				}
			}
		}
	}
}
MOTION
Frames: 4
Frame Time: 0.033333
-0.924603 86.059601 1.788466 5.048648 -15.645523 0.435136 23.111373 4.265122 -0.553193 3.699077 1.240285 -0.840910 3.692180 1.313818 -0.845958 -12.698323 1.122657 2.284734 -14.088194 7.830450 -3.299428 -0.000000 -0.000000 0.000000 7.812697 -20.949867 9.748535 -33.643562 -3.123659 -85.447169 0.000027 -42.998469 -4.822994 -17.289690 -10.866562 -12.599019 -7.471936 1.860687 -7.166898 30.987018 27.310496 -4.510897 83.254624 13.297951 -10.940309 -0.000001 -0.000003 -0.000003 -17.098977 22.128944 -43.123185 0.019727 0.027009 -78.662872 0.004933 0.007734 -26.297188 -0.000000 -0.000000 -0.000004 -6.443170 23.132659 -76.210172 0.012864 0.975918 -51.002969 6.771119 8.412957 -40.137016 -0.000001 0.000001 0.000002 1.623329 16.580940 -84.691272 0.018007 0.022034 -72.884874 -1.296720 -0.092184 -19.943290 -0.000001 0.000003 0.000006 -4.713224 11.359438 -75.216324 -0.816403 3.073994 -46.874663 -4.740638 0.379120 -78.699461 -0.000001 0.000001 0.000001 13.916963 27.241166 -23.493047 -43.128779 -5.410741 84.810937 0.000016 58.104542 5.767250 -18.206827 16.096524 8.636263 9.347167 2.810551 -11.364504 16.169105 -43.265997 15.843594 32.491767 -44.566793 5.661120 0.000001 -0.000001 0.000002 17.076788 -0.396545 31.924342 -0.204384 -0.284218 112.811550 1.553153 -1.173016 33.344560 -0.000000 -0.000003 -0.000002 9.205483 -5.035900 102.738087 0.014976 -0.019206 61.018526 1.871331 0.346186 31.443773 -0.000000 0.000000 -0.000009 5.569153 -8.935243 107.329108 0.547970 -0.005783 41.263738 0.739141 0.837846 51.122255 -0.000000 0.000000 -0.000002 6.511227 -17.148230 98.228024 0.007407 -0.015758 43.845754 0.011231 -0.024782 57.754543 -0.000000 -0.000000 0.000006 -35.893361 1.735259 12.727009 30.867182 2.913119 0.600511 1.377886 1.411504 -8.463978 -0.359397 -1.379839 -0.238582 0.000000 0.000000 0.000000 -8.131365 -10.848272 -15.450057 28.346861 -3.612508 2.769233 -21.641106 -5.287950 13.815588 -1.226099 1.216306 -0.216675 0.000000 0.000001 -0.000000 
-0.933871 86.206207 1.921370 5.178112 -14.842409 0.308917 22.455068 4.072849 -0.560815 3.673550 1.215583 -0.857117 3.667041 1.284644 -0.862548 -12.700757 1.089699 2.655691 -13.742489 8.144885 -3.710093 -0.000001 0.000000 -0.000000 7.480807 -21.927474 8.588206 -32.915983 -2.958499 -83.472801 0.000046 -42.251082 -4.670421 -18.509299 -12.098245 -13.052963 -7.471937 1.860686 -7.166895 30.987025 27.310494 -4.510893 83.254631 13.297947 -10.940314 0.000001 0.000001 -0.000001 -17.097958 22.129897 -46.240852 0.019084 0.026887 -77.208663 0.004933 0.007739 -26.297186 0.000000 -0.000000 -0.000000 -6.442749 23.132847 -77.168270 0.012866 0.975918 -51.002996 6.771120 8.412957 -40.137019 0.000001 0.000000 0.000003 1.623323 16.580940 -84.691272 0.018001 0.022035 -72.884880 -1.296722 -0.092182 -19.943292 -0.000001 -0.000001 0.000009 -4.710331 11.364979 -75.250632 -0.816400 3.073990 -46.874663 -4.740636 0.379115 -78.699461 -0.000003 0.000005 0.000002 13.275763 28.570244 -21.067280 -42.935498 -2.954988 82.618255 0.000052 56.788433 5.479493 -18.899280 16.502984 7.046130 9.347166 2.810552 -11.364502 16.169110 -43.265994 15.843594 32.491773 -44.566793 5.661123 0.000003 -0.000001 -0.000000 17.076793 -0.396542 31.924345 -0.204379 -0.284217 112.811557 1.553153 -1.173014 33.344563 -0.000000 -0.000001 -0.000001 9.205483 -5.035901 102.738087 0.014977 -0.019207 61.018526 1.871330 0.346183 31.443770 -0.000002 0.000000 -0.000009 5.569152 -8.935245 107.329115 0.547967 -0.005781 41.263741 0.739142 0.837850 51.122255 -0.000001 -0.000001 -0.000000 6.511226 -17.148230 98.228031 0.007402 -0.015755 43.845757 0.011232 -0.024781 57.754550 0.000003 -0.000001 0.000004 -36.118816 1.756094 12.448554 30.382447 2.334865 0.652718 1.774754 1.301543 -8.154486 -0.359397 -1.379838 -0.238582 0.000000 -0.000001 -0.000000 -7.300289 -10.762323 -15.078754 27.641005 -4.634228 2.642612 -21.522923 -5.508651 14.297230 -1.326476 1.181869 -0.219301 -0.000000 0.000001 0.000000 
-0.883941 86.165192 2.140986 5.390832 -13.765075 0.069268 21.621239 3.896393 -0.437567 3.606664 1.170772 -0.812941 3.600687 1.235218 -0.818208 -12.716001 1.033235 2.990454 -13.135975 8.357121 -4.235024 0.000000 -0.000000 -0.000000 7.052448 -23.327872 7.237298 -31.679073 -2.710136 -81.266110 0.000012 -42.613444 -4.630060 -19.909460 -12.481798 -12.491562 -7.471933 1.860692 -7.166899 30.987018 27.310498 -4.510900 83.254624 13.297952 -10.940313 0.000000 0.000000 0.000002 -17.096776 22.130913 -49.671601 0.018377 0.026719 -75.608411 0.004933 0.007735 -26.297188 0.000001 0.000000 -0.000002 -6.442289 23.133048 -78.222543 0.012879 0.975923 -51.002983 6.771120 8.412950 -40.137012 -0.000001 -0.000002 0.000007 1.623328 16.580940 -84.691272 0.018007 0.022039 -72.884880 -1.296723 -0.092184 -19.943287 0.000003 0.000000 0.000004 -4.705906 11.369677 -75.288793 -0.816400 3.073992 -46.874659 -4.740632 0.379120 -78.699455 -0.000001 0.000002 -0.000003 12.670440 30.104479 -19.023019 -42.219056 0.380267 79.670209 0.000021 55.618398 4.994922 -21.631534 16.980166 5.526810 9.347169 2.810556 -11.364505 16.169107 -43.265997 15.843589 32.491777 -44.566790 5.661122 0.000002 -0.000002 0.000002 17.076788 -0.396543 31.924342 -0.204386 -0.284215 112.811543 1.553154 -1.173014 33.344560 0.000000 -0.000001 -0.000001 9.205483 -5.035892 102.738080 0.014975 -0.019205 61.018526 1.871330 0.346183 31.443770 0.000001 0.000000 -0.000001 5.569153 -8.935242 107.329108 0.547968 -0.005788 41.263734 0.739142 0.837849 51.122258 -0.000001 -0.000000 -0.000003 6.511223 -17.148225 98.228031 0.007406 -0.015760 43.845751 0.011233 -0.024777 57.754543 0.000002 0.000002 -0.000003 -36.830467 1.724352 12.095427 30.473480 1.493628 0.784251 1.943979 1.191951 -7.753463 -0.359397 -1.379839 -0.238582 0.000000 -0.000000 -0.000000 -6.392308 -10.611551 -14.659816 27.197115 -5.894287 2.553766 -21.664641 -5.850753 14.974254 -1.429567 1.099048 -0.170395 -0.000000 -0.000000 -0.000000 
-0.730130 85.936775 2.473836 5.432807 -12.402801 -0.377812 20.749206 3.695185 -0.135867 3.595888 1.067632 -0.714378 3.590630 1.127221 -0.718622 -12.817623 0.945774 3.386467 -12.174659 8.580425 -4.946750 -0.000001 -0.000000 -0.000000 6.527572 -25.006241 5.740022 -30.433977 -2.674499 -78.811661 0.000026 -43.448432 -4.401693 -21.480223 -12.472277 -11.664851 -7.471938 1.860690 -7.166898 30.987018 27.310505 -4.510896 83.254624 13.297951 -10.940308 0.000001 -0.000000 -0.000003 -17.095441 22.131893 -53.337162 0.017645 0.026517 -73.898631 0.004932 0.007731 -26.297191 0.000000 0.000000 -0.000002 -6.441784 23.133226 -79.349019 0.012858 0.975925 -51.002986 6.771121 8.412954 -40.137012 -0.000000 0.000001 0.000003 1.623329 16.580943 -84.691272 0.018000 0.022038 -72.884874 -1.296721 -0.092179 -19.943287 0.000001 -0.000003 0.000006 -4.701035 11.371399 -75.330682 -0.816401 3.073987 -46.874656 -4.740635 0.379122 -78.699461 0.000002 -0.000000 -0.000001 12.012123 31.750032 -17.218629 -40.933361 4.208285 76.065638 0.000058 54.803273 4.499096 -25.575549 17.593437 3.526231 9.347169 2.810554 -11.364505 16.169100 -43.265994 15.843594 32.491780 -44.566790 5.661116 -0.000004 0.000000 -0.000000 17.076784 -0.396548 31.924338 -0.204384 -0.284217 112.811550 1.553153 -1.173013 33.344557 -0.000001 -0.000001 0.000001 9.205483 -5.035893 102.738080 0.014976 -0.019205 61.018519 1.871331 0.346186 31.443770 0.000001 0.000000 -0.000004 5.569153 -8.935245 107.329108 0.547969 -0.005784 41.263738 0.739144 0.837844 51.122262 -0.000003 -0.000001 -0.000005 6.511227 -17.148232 98.228024 0.007406 -0.015760 43.845754 0.011232 -0.024779 57.754543 -0.000000 -0.000001 -0.000001 -37.804154 1.691698 11.674731 31.261649 0.346816 0.959918 1.786537 1.069856 -7.172324 -0.359397 -1.379838 -0.238582 0.000000 -0.000000 0.000000 -5.096432 -10.465534 -14.180023 26.956042 -7.340958 2.490285 -22.052152 -6.328600 15.887317 -1.446873 1.029844 -0.204593 0.000000 -0.000001 -0.000000 
